#!OML:ASF H:\Terrain\Patient Classification 1\Animal1\Tuesday\Animal1.ASF
:FULLY-SPECIFIED
:DEGREES
1530
root 5.81509 16.7227 3.41189 9.77897 1.05303 -360.035
lowerback -8.16323 -0.621502 -0.582728
upperback -7.49493 -0.815711 -1.09727
thorax -3.20494 -0.41238 -0.850412
lowerneck -2.92994 -2.1883 -8.1402
upperneck 7.58249 -3.47407 12.7447
head 3.07398 -1.50734 5.10669
rclavicle -1.89839e-014 -1.47101e-014
rhumerus -39.6756 -2.63356 -81.8189
rradius 23.2504
rwrist -2.78041
rhand -20.1569 27.2761
rfingers 7.12502
rthumb 6.1883 -2.61348
lclavicle -1.89839e-014 -1.47101e-014
lhumerus -40.9277 8.95018 78.6778
lradius 24.9962
lwrist -31.361
lhand 3.29474 34.7261
lfingers 7.12502
lthumb -151.258 -117.466
rfemur -20.6107 43.1135 13.1079
rtibia 23.4554
rfoot -38.3643 -43.4315
rtoes 42.7678
lfemur -11.5474 -46.3653 -12.5629
ltibia 15.5258
lfoot -51.5571 39.9607
ltoes 46.7276
1531
root 5.80945 16.7233 3.42461 9.72075 1.06953 -359.895
lowerback -8.22123 -0.602651 -0.720325
upperback -7.47495 -0.783465 -1.17469
thorax -3.15109 -0.392191 -0.852483
lowerneck -2.87019 -2.26721 -8.02893
upperneck 7.69202 -3.60134 12.741
head 3.10808 -1.56743 5.08234
rclavicle -5.1684e-015 9.14409e-015
rhumerus -39.6244 -3.05902 -81.5994
rradius 23.2164
rwrist -3.10495
rhand -19.1499 27.5492
rfingers 7.12502
rthumb 7.16048 -2.3097
lclavicle -5.1684e-015 9.14409e-015
lhumerus -40.9371 8.94923 78.6238
lradius 24.8402
lwrist -31.5155
lhand 3.27162 34.6204
lfingers 7.12502
lthumb -151.28 -117.568
rfemur -20.5416 43.3133 13.0622
rtibia 23.6535
rfoot -38.7537 -43.5027
rtoes 42.4772
lfemur -11.2695 -46.5167 -12.8425
ltibia 15.3511
lfoot -51.4274 40.4979
ltoes 46.1226
1532
root 5.80918 16.722 3.44409 9.53151 1.08989 -359.524
lowerback -8.31354 -0.61175 -1.04703
upperback -7.37451 -0.776595 -1.2975
thorax -2.99243 -0.378112 -0.797521
lowerneck -2.81371 -2.33139 -8.00212
upperneck 7.86444 -3.71433 12.7979
head 3.16199 -1.61941 5.09234
rclavicle -5.1684e-015 -3.57812e-015
rhumerus -39.6314 -3.47797 -81.3004
rradius 23.2143
rwrist -3.90359
rhand -17.5287 28.7217
rfingers 7.12502
rthumb 8.72518 -1.07794
lclavicle -5.1684e-015 -3.57812e-015
lhumerus -40.9762 9.23262 78.4728
lradius 24.6856
lwrist -31.958
lhand 3.36738 34.8121
lfingers 7.12502
lthumb -151.188 -117.392
rfemur -20.1671 43.4453 12.9509
rtibia 23.8174
rfoot -39.201 -43.5958
rtoes 42.5828
lfemur -10.7557 -46.9408 -13.5777
ltibia 15.2278
lfoot -51.3337 41.6364
ltoes 44.6416
1533
root 5.80482 16.7193 3.4543 9.39861 1.08943 -359.426
lowerback -8.31303 -0.633383 -1.15903
upperback -7.31528 -0.798309 -1.30516
thorax -2.9293 -0.384694 -0.744102
lowerneck -2.924 -2.35223 -8.16901
upperneck 8.18881 -3.78584 13.1251
head 3.29232 -1.63821 5.22198
rclavicle -1.06847e-014 -1.39149e-014
rhumerus -39.6135 -3.54226 -81.2031
rradius 23.1068
rwrist -4.36196
rhand -16.9621 29.2608
rfingers 7.12502
rthumb 9.27188 -0.51528
lclavicle -1.06847e-014 -1.39149e-014
lhumerus -41.0966 9.43291 78.4158
lradius 24.7457
lwrist -32.1465
lhand 3.51928 35.6093
lfingers 7.12502
lthumb -151.043 -116.619
rfemur -19.9222 43.3782 13.0865
rtibia 23.944
rfoot -38.9711 -43.6501
rtoes 42.6771
lfemur -10.449 -47.2569 -13.842
ltibia 15.134
lfoot -51.2176 42.5505
ltoes 43.4499
1534
root 5.80017 16.7179 3.45708 9.47371 1.08838 -359.542
lowerback -8.41027 -0.635162 -1.04462
upperback -7.32102 -0.804182 -1.24708
thorax -2.88226 -0.391075 -0.749536
lowerneck -3.00222 -2.374 -8.34238
upperneck 8.37174 -3.84972 13.4744
head 3.37551 -1.65592 5.36003
rclavicle 1.09332e-014 8.74653e-015
rhumerus -39.5695 -3.22844 -81.4016
rradius 23.1766
rwrist -5.04404
rhand -17.372 28.4642
rfingers 7.12502
rthumb 8.87639 -1.32915
lclavicle 1.09332e-014 8.74653e-015
lhumerus -41.1829 9.26981 78.6251
lradius 24.9464
lwrist -31.8484
lhand 3.33799 36.311
lfingers 7.12502
lthumb -151.217 -115.888
rfemur -20.0599 43.4974 13.139
rtibia 23.9958
rfoot -39.456 -43.4457
rtoes 42.6764
lfemur -10.5617 -47.458 -13.5809
ltibia 15.0961
lfoot -51.4984 42.3706
ltoes 43.813
1535
root 5.79234 16.7191 3.45719 9.56703 1.10861 -359.602
lowerback -8.4667 -0.644233 -0.999912
upperback -7.34187 -0.817111 -1.19221
thorax -2.87287 -0.398045 -0.719162
lowerneck -2.97294 -2.4159 -8.44163
upperneck 8.37947 -3.91895 13.6448
head 3.38537 -1.68775 5.42827
rclavicle 2.5842e-015 -4.77083e-015
rhumerus -39.501 -2.80949 -81.6239
rradius 23.3265
rwrist -6.16355
rhand -17.3881 27.515
rfingers 7.12502
rthumb 8.86083 -2.279
lclavicle 2.5842e-015 -4.77083e-015
lhumerus -41.2522 9.30301 78.7348
lradius 25.0527
lwrist -31.8739
lhand 2.97759 36.7754
lfingers 7.12502
lthumb -151.561 -115.366
rfemur -20.2236 43.87 13.0521
rtibia 23.9263
rfoot -39.7625 -43.5919
rtoes 42.8038
lfemur -10.798 -47.3978 -13.3396
ltibia 15.193
lfoot -51.7397 41.88
ltoes 44.1488
1536
root 5.77643 16.722 3.45546 9.65578 1.09313 -359.703
lowerback -8.45197 -0.64003 -1.00737
upperback -7.39289 -0.811383 -1.13628
thorax -2.93362 -0.393274 -0.656444
lowerneck -2.85734 -2.50634 -8.55693
upperneck 8.35058 -4.06066 13.8737
head 3.37971 -1.75768 5.51516
rclavicle 1.54058e-015 5.96354e-015
rhumerus -39.4108 -2.43046 -81.8368
rradius 23.3234
rwrist -7.31052
rhand -17.2645 27.3528
rfingers 7.12502
rthumb 8.98012 -2.43606
lclavicle 1.54058e-015 5.96354e-015
lhumerus -41.3499 9.61983 78.5756
lradius 25.1433
lwrist -32.3509
lhand 2.85763 37.1599
lfingers 7.12502
lthumb -151.675 -114.962
rfemur -20.3572 44.0397 13.0741
rtibia 23.7757
rfoot -38.6911 -44.3923
rtoes 42.1709
lfemur -11.0918 -47.1407 -13.0166
ltibia 15.3791
lfoot -51.6974 41.603
ltoes 44.9084
1537
root 5.76456 16.7211 3.45541 9.73261 1.06571 -359.788
lowerback -8.43979 -0.629475 -0.997886
upperback -7.44709 -0.798533 -1.10512
thorax -2.99696 -0.386256 -0.628456
lowerneck -2.56656 -2.60597 -8.58977
upperneck 8.12927 -4.20675 14.0609
head 3.28614 -1.83941 5.57503
rclavicle 5.1684e-015 1.94809e-014
rhumerus -39.3811 -2.35112 -81.9183
rradius 23.2653
rwrist -8.08854
rhand -17.3738 27.5025
rfingers 7.12502
rthumb 8.87467 -2.29085
lclavicle 5.1684e-015 1.94809e-014
lhumerus -41.4162 9.80292 78.479
lradius 25.2151
lwrist -32.6276
lhand 2.88938 37.3222
lfingers 7.12502
lthumb -151.645 -114.805
rfemur -20.3925 44.0604 13.1274
rtibia 23.5782
rfoot -38.2888 -44.6798
rtoes 41.9583
lfemur -11.3351 -46.9704 -12.797
ltibia 15.6062
lfoot -51.4329 41.688
ltoes 45.4179
1538
root 5.7555 16.7202 3.44864 9.77686 1.05093 -359.878
lowerback -8.2778 -0.607068 -0.942492
upperback -7.54015 -0.775877 -1.08461
thorax -3.18446 -0.37624 -0.634869
lowerneck -2.2893 -2.70264 -8.56481
upperneck 7.98836 -4.34913 14.1384
head 3.21525 -1.91971 5.59109
rclavicle 5.1684e-015 1.31198e-014
rhumerus -39.5028 -2.40619 -81.9684
rradius 23.3732
rwrist -8.80475
rhand -17.6953 26.0545
rfingers 7.12502
rthumb 8.56436 -3.75177
lclavicle 5.1684e-015 1.31198e-014
lhumerus -41.5006 9.7977 78.4849
lradius 25.187
lwrist -32.7138
lhand 2.85975 37.3976
lfingers 7.12502
lthumb -151.673 -114.725
rfemur -20.4376 44.2054 13.1433
rtibia 23.3771
rfoot -38.2282 -44.7746
rtoes 41.9868
lfemur -11.5587 -46.6982 -12.5996
ltibia 15.8166
lfoot -51.0114 41.7928
ltoes 45.3586
1539
root 5.74745 16.723 3.43935 9.89577 1.17514 -360.124
lowerback -8.16532 -0.603466 -0.713824
upperback -7.65454 -0.784686 -1.00256
thorax -3.36867 -0.388134 -0.676837
lowerneck -2.35425 -2.82875 -8.77937
upperneck 8.31922 -4.56652 14.4175
head 3.35965 -2.01452 5.70842
rclavicle -8.49804e-015 -1.78906e-014
rhumerus -39.6316 -2.36068 -82.0233
rradius 23.5625
rwrist -9.65711
rhand -17.98 23.3394
rfingers 7.12502
rthumb 8.28959 -6.478
lclavicle -8.49804e-015 -1.78906e-014
lhumerus -41.6 9.90001 78.4611
lradius 25.0982
lwrist -32.8573
lhand 2.41047 37.3246
lfingers 7.12502
lthumb -152.103 -114.727
rfemur -20.6344 44.3948 13.2252
rtibia 23.2158
rfoot -38.7653 -44.688
rtoes 42.2234
lfemur -11.9437 -46.3385 -12.0773
ltibia 15.978
lfoot -50.4162 41.6388
ltoes 45.1511
1540
root 5.7438 16.7246 3.43774 10.0223 1.28572 -360.182
lowerback -8.21013 -0.630826 -0.644094
upperback -7.7054 -0.823632 -0.962073
thorax -3.39822 -0.409625 -0.676267
lowerneck -2.63186 -2.95616 -9.05884
upperneck 8.83339 -4.79991 14.7948
head 3.6014 -2.10302 5.86672
rclavicle -3.18055e-015 -4.77083e-015
rhumerus -39.6598 -2.36983 -81.9923
rradius 23.6246
rwrist -10.3861
rhand -17.698 22.4738
rfingers 7.12502
rthumb 8.56183 -7.33258
lclavicle -3.18055e-015 -4.77083e-015
lhumerus -41.6428 9.87692 78.5496
lradius 25.0536
lwrist -32.6751
lhand 1.79847 37.2874
lfingers 7.12502
lthumb -152.688 -114.671
rfemur -20.763 44.4257 13.1528
rtibia 23.0976
rfoot -40.0441 -43.9821
rtoes 43.3449
lfemur -12.2582 -46.2238 -11.8137
ltibia 16.1051
lfoot -50.2711 41.4472
ltoes 43.8176
